name C:\Users\u0150099\Documents\master_thesis\3dpredictsim\Results\debug\Fal_s1_mtj_sc_cspx10_oy_MTc_MTPm_k1_d01_MTJm_nl_MG_exp_table_d01_PF_Gefen2002_ls146_FDB_ig21_test.mot
datacolumns 130
datarows 4
range 1.13784493 1.17198028
endheader
time	pelvis_tilt	pelvis_list	pelvis_rotation	pelvis_tx	pelvis_ty	pelvis_tz	hip_flexion_l	hip_adduction_l	hip_rotation_l	hip_flexion_r	hip_adduction_r	hip_rotation_r	knee_angle_l	knee_angle_r	ankle_angle_l	ankle_angle_r	subtalar_angle_l	subtalar_angle_r	mtj_angle_l	mtj_angle_r	mtp_angle_l	mtp_angle_r	lumbar_extension	lumbar_bending	lumbar_rotation	arm_flex_l	arm_add_l	arm_rot_l	arm_flex_r	arm_add_r	arm_rot_r	elbow_flex_l	elbow_flex_r	pro_sup_l	pro_sup_r	glut_med1_l/activation	glut_med2_l/activation	glut_med3_l/activation	glut_min1_l/activation	glut_min2_l/activation	glut_min3_l/activation	semimem_l/activation	semiten_l/activation	bifemlh_l/activation	bifemsh_l/activation	sar_l/activation	add_long_l/activation	add_brev_l/activation	add_mag1_l/activation	add_mag2_l/activation	add_mag3_l/activation	tfl_l/activation	pect_l/activation	grac_l/activation	glut_max1_l/activation	glut_max2_l/activation	glut_max3_l/activation	iliacus_l/activation	psoas_l/activation	quad_fem_l/activation	gem_l/activation	peri_l/activation	rect_fem_l/activation	vas_med_l/activation	vas_int_l/activation	vas_lat_l/activation	med_gas_l/activation	lat_gas_l/activation	soleus_l/activation	tib_post_l/activation	flex_dig_l/activation	flex_hal_l/activation	tib_ant_l/activation	per_brev_l/activation	per_long_l/activation	per_tert_l/activation	ext_dig_l/activation	ext_hal_l/activation	FDB_l/activation	ercspn_l/activation	intobl_l/activation	extobl_l/activation	glut_med1_r/activation	glut_med2_r/activation	glut_med3_r/activation	glut_min1_r/activation	glut_min2_r/activation	glut_min3_r/activation	semimem_r/activation	semiten_r/activation	bifemlh_r/activation	bifemsh_r/activation	sar_r/activation	add_long_r/activation	add_brev_r/activation	add_mag1_r/activation	add_mag2_r/activation	add_mag3_r/activation	tfl_r/activation	pect_r/activation	grac_r/activation	glut_max1_r/activation	glut_max2_r/activation	glut_max3_r/activation	iliacus_r/activation	psoas_r/activation	quad_fem_r/activation	gem_r/activation	peri_r/activation	rect_fem_r/activation	vas_med_r/activation	vas_int_r/activation	vas_lat_r/activation	med_gas_r/activation	lat_gas_r/activation	soleus_r/activation	tib_post_r/activation	flex_dig_r/activation	flex_hal_r/activation	tib_ant_r/activation	per_brev_r/activation	per_long_r/activation	per_tert_r/activation	ext_dig_r/activation	ext_hal_r/activation	FDB_r/activation	ercspn_r/activation	intobl_r/activation	extobl_r/activation	
          1.13784493	         -0.13664982	          2.51355231	          1.49502482	          1.42777398	          0.89043420	         -0.02124609	        -16.58459650	          5.43792197	          2.75864082	         31.48778351	          0.88294165	          8.81318877	        -16.31864792	        -15.89866882	         19.71359272	          0.81643127	         16.44160601	         13.84777195	         -5.22561012	          0.50498130	          1.48705388	          5.54000872	         -7.94042355	         -5.34502426	         -0.78940909	         12.35889258	        -32.09606224	          2.27223096	          3.26624764	        -33.38698663	          2.02618795	         55.26057534	         42.38869443	         86.51662706	         86.51662706	          0.58568834	          0.44466211	          0.35594549	          0.53330725	          0.50625790	          0.47338504	          0.42607093	          0.44946293	          0.43905590	          0.49836623	          0.50369791	          0.44566529	          0.43144698	          0.45375915	          0.44832702	          0.45649239	          0.50585495	          0.48045333	          0.46204579	          0.42759599	          0.42255463	          0.42145319	          0.59063827	          0.59248028	          0.36375033	          0.45837921	          0.43697714	          0.52216118	          0.43891788	          0.43447860	          0.40877577	          0.30623919	          0.38129506	          0.19480082	          0.36436790	          0.44760570	          0.52908258	          0.24702620	          0.62155940	          0.66336082	          0.48735400	          0.34834307	          0.41513950	          0.63075959	          0.38661401	          0.31066775	          0.40115016	          0.39628624	          0.37492618	          0.36620227	          0.46252049	          0.44938633	          0.43657058	          0.54113855	          0.50628091	          0.50472736	          0.61833905	          0.53385124	          0.56437615	          0.53980871	          0.49526115	          0.47645937	          0.41179636	          0.49006281	          0.49276036	          0.52313105	          0.39544519	          0.34726229	          0.37738629	          0.63981925	          0.62654400	          0.48849666	          0.48659834	          0.43071179	          0.40261018	          0.33778521	          0.33066586	          0.30970620	          0.10662755	          0.18676992	          0.06702466	          0.50370716	          0.40484751	          0.43314376	          0.51015591	          0.25151943	          0.17959371	          0.44227185	          0.57373832	          0.54284592	          0.69222032	          0.61743875	          0.64427319	          0.55356234	
          1.14922338	         -0.14324741	          1.86307976	          1.54580837	          1.44543380	          0.88807924	         -0.02132454	        -17.02814079	          4.73372435	          1.64043039	         31.76636521	          1.99323928	          9.31689908	        -17.57846986	        -17.65783954	         17.74770369	         -0.30915604	         16.38177624	         14.39779466	         -3.77425674	          1.26376009	          1.45387458	          4.10982504	         -7.48943910	         -4.43474839	         -0.92376169	         13.01394302	        -32.04747459	          2.02019300	          3.38688055	        -33.52284449	          2.02802076	         56.40197709	         42.48627059	         86.51662706	         86.51662706	          0.58403195	          0.43553845	          0.34294089	          0.53323014	          0.50517763	          0.47086828	          0.42523155	          0.45672281	          0.44204226	          0.50218331	          0.50275130	          0.44310542	          0.42968608	          0.45336269	          0.44971479	          0.45734415	          0.50043144	          0.47932920	          0.46176116	          0.42655073	          0.42153725	          0.42030665	          0.58289675	          0.58406085	          0.35241233	          0.45091005	          0.43225462	          0.48594543	          0.42211922	          0.41655148	          0.38571173	          0.30506973	          0.38254612	          0.18998076	          0.37107606	          0.45489352	          0.53547266	          0.25064861	          0.58255715	          0.58504519	          0.48594062	          0.33567120	          0.40765929	          0.65488443	          0.37550977	          0.29922107	          0.39036749	          0.40688568	          0.38482716	          0.37431003	          0.46346602	          0.45094291	          0.44036342	          0.57332689	          0.52736011	          0.54954658	          0.60853981	          0.52269903	          0.55284376	          0.53542559	          0.49737132	          0.48284555	          0.43971578	          0.48045367	          0.49021668	          0.52303607	          0.40683233	          0.36641465	          0.40858084	          0.59597480	          0.58383426	          0.48818387	          0.48828197	          0.44153173	          0.37487466	          0.33863666	          0.33123723	          0.30864089	          0.11568326	          0.20426652	          0.07201483	          0.51471641	          0.41553247	          0.44583038	          0.48169792	          0.26838568	          0.20228838	          0.42732323	          0.54119129	          0.53829605	          0.68481465	          0.63556294	          0.62685816	          0.53833863	
          1.16060183	         -0.20893487	          1.09326500	          1.60265749	          1.46329689	          0.88575479	         -0.02170199	        -17.33748210	          3.92874971	          0.56604197	         32.02400721	          3.11199259	          9.54644850	        -18.96811861	        -19.51864502	         15.58380581	         -1.90276877	         16.12830086	         14.64195421	         -2.36266151	          1.90348120	          1.63541052	          2.80015265	         -6.97437259	         -3.33136569	         -1.07593329	         13.69481219	        -31.96389788	          1.78499551	          3.59711743	        -33.61598128	          2.01637257	         57.47819448	         42.60263143	         86.51662706	         86.51662706	          0.58015829	          0.41720016	          0.32281675	          0.53150210	          0.50037737	          0.46330178	          0.42475508	          0.46875830	          0.44543676	          0.50866204	          0.50023455	          0.45724223	          0.43804281	          0.45537099	          0.45207696	          0.45955763	          0.49411437	          0.48092705	          0.46422214	          0.42526404	          0.42015957	          0.41908128	          0.58042810	          0.58275374	          0.33948806	          0.44075227	          0.42285338	          0.44473973	          0.40061201	          0.39389472	          0.35861039	          0.30170852	          0.38165038	          0.18328920	          0.37751743	          0.46332081	          0.54314164	          0.26209354	          0.53433835	          0.50800916	          0.48567278	          0.32317013	          0.39905449	          0.67825880	          0.40352513	          0.30102158	          0.39568431	          0.42886761	          0.41550451	          0.40978439	          0.46581042	          0.45711318	          0.45244498	          0.59944325	          0.54985180	          0.58907819	          0.59641966	          0.50905998	          0.53373603	          0.52089829	          0.49466498	          0.48590200	          0.46781495	          0.47068028	          0.48603157	          0.51988602	          0.43591548	          0.41746447	          0.45107474	          0.54624546	          0.53719125	          0.49000210	          0.49193150	          0.46473402	          0.34774453	          0.34397899	          0.33637105	          0.31205652	          0.11838478	          0.21119140	          0.07153117	          0.48903960	          0.42120689	          0.45369049	          0.48422917	          0.28103307	          0.22342080	          0.42179880	          0.52298166	          0.53243722	          0.67848018	          0.62051108	          0.59612030	          0.50867389	
          1.17198028	         -0.31318450	          0.30213593	          1.67417095	          1.48136230	          0.88355807	         -0.02238096	        -17.51249905	          3.09864438	         -0.44627371	         32.26887963	          4.11081939	          9.29369315	        -20.49876542	        -21.49449408	         13.17782241	         -3.38087468	         15.76931278	         14.00113679	         -1.10798721	          2.33910021	          2.13122168	          1.25466282	         -6.41158459	         -2.16497391	         -1.25822709	         14.32410524	        -31.85445011	          1.58007023	          3.79953146	        -33.67011853	          1.99648090	         58.44122176	         42.67710187	         86.51662706	         86.51662706	          0.58429163	          0.39413838	          0.29876130	          0.53305604	          0.49535511	          0.45242739	          0.42455566	          0.48608757	          0.44850972	          0.52654385	          0.49905272	          0.47883731	          0.45106959	          0.45717444	          0.45453847	          0.46134425	          0.48849435	          0.48424334	          0.46807066	          0.42346322	          0.41780197	          0.41665304	          0.59167063	          0.59362383	          0.32251756	          0.42739592	          0.41018961	          0.40150571	          0.37305897	          0.36547783	          0.32758500	          0.29685140	          0.37922872	          0.17513558	          0.38477962	          0.47301275	          0.55126721	          0.30008898	          0.48166420	          0.43795596	          0.48816230	          0.31197352	          0.39005216	          0.69457681	          0.44913764	          0.29639209	          0.41503224	          0.43238630	          0.44814115	          0.46230595	          0.46508128	          0.46111875	          0.46502123	          0.61252056	          0.56572692	          0.61528367	          0.58477648	          0.49743143	          0.51336968	          0.50331947	          0.49005273	          0.48639361	          0.49164563	          0.46040314	          0.48157895	          0.51596082	          0.47418584	          0.49146543	          0.50222957	          0.49739796	          0.49179022	          0.50061491	          0.49876618	          0.49652172	          0.32483151	          0.35001979	          0.34259900	          0.31695083	          0.12062391	          0.21573294	          0.07066321	          0.45296135	          0.42353090	          0.45883771	          0.46620577	          0.31037477	          0.26862845	          0.43266685	          0.50866994	          0.52069339	          0.67580630	          0.59897745	          0.58156083	          0.48114490	
